<?xml version="1.0" encoding="UTF-8"?>
<svg id="_레이어_2" data-name="레이어 2" xmlns="http://www.w3.org/2000/svg" xmlns:xlink="http://www.w3.org/1999/xlink" viewBox="0 0 1094.9 658.59">
  <defs>
    <style>
      .cls-1 {
        fill: url(#_무제_그라디언트_27);
      }

      .cls-2 {
        fill: url(#_무제_그라디언트_42);
      }

      .cls-3 {
        fill: url(#_무제_그라디언트_51);
      }
    </style>
    <linearGradient id="_무제_그라디언트_27" data-name="무제 그라디언트 27" x1="0" y1="329.29" x2="878.77" y2="329.29" gradientUnits="userSpaceOnUse">
      <stop offset="0" stop-color="#9ce2d5"/>
      <stop offset="1" stop-color="#0f826c"/>
    </linearGradient>
    <linearGradient id="_무제_그라디언트_51" data-name="무제 그라디언트 51" x1="824.48" y1="311.66" x2="1094.9" y2="311.66" gradientUnits="userSpaceOnUse">
      <stop offset="0" stop-color="#0f826c"/>
      <stop offset="1" stop-color="#07604f"/>
    </linearGradient>
    <linearGradient id="_무제_그라디언트_42" data-name="무제 그라디언트 42" x1="403.12" y1="302.28" x2="777.98" y2="302.28" gradientUnits="userSpaceOnUse">
      <stop offset="0" stop-color="#5eb8a7"/>
      <stop offset="1" stop-color="#208d79"/>
    </linearGradient>
  </defs>
  <g id="_레이어_1-2" data-name="레이어 1">
    <g>
      <path class="cls-1" d="M535.29,201.13c14.2-5.91,27.26-19.1,35.01-32.22,5.27-8.93,4.12-17.88,17.89-15.31,4.32.81,7.56,4.61,7.86,8.88.7,10.14-18.59,44.29-23.25,56.52-2.33,6.1-11.96,29.89-5.38,33.96,4.81,2.98,14.35-10.36,17.16-13.85,20.34-25.3,31.58-56.21,45.85-85.04,5.46-5.06,24.1-5.5,22.47,4.51-8.88,23.84-24.46,48.4-30.67,72.97-2.45,9.69-7.18,26.87,7.66,14.8,13.42-10.91,34.33-49.71,42.08-66.21,2.13-4.53,11.08-28.66,12.37-29.87,3.07-2.89,12.53-3.61,15.75-.29,2.48,3.43,2.22,8,1.26,11.94l-10.77,32.06c10.41-13.69,28.36-42.85,45.8-47.01,9.37-2.23,17.91,3.52,19.08,13.07,3.03,24.8-20.92,53.35-26.8,76.77-6.44,25.63,14.32,4,20.63-4.36,16.36-21.65,22.65-49.03,42.42-68.25,13.38-13.01,46.83-35.54,55.36-6.7l2.36.78c2.87-9.72,14.17-24.02,25.37-17.61,9.72,5.56-1.03,13.62-4.16,19.17-4.21,7.46-7.59,15.62-11.06,23.45-60.19,135.97-120.45,350.9-247.04,438.37-74.38,51.4-185.79,55.62-237.19-29.14-64.97-107.14,41.02-242.4,154.61-248.59,141.44-7.71,141.18,172.19,24.71,212.72-66.62,23.18-122.32-52.85-76.45-107.39,13.89-16.52,35.96-30.46,58.31-23.87,3.06.9,16.4,8.3,15.43,11.92-.88,3.28-8.59-.4-11.31-.57-51.77-3.13-87.58,85.25-40.67,106.12,36.2,16.1,84.65-25.11,101.73-54.6,49.87-86.1-3.39-156.95-99.98-130.92-80.76,21.77-148.92,109.91-131.5,195.08,10.99,53.76,57.5,92.48,112.07,96.17,129.83,8.78,210.15-152.55,260.26-249.13l68.8-158.48c-1.17-1.89-2.66.28-3.54,1.22-5.51,5.82-10.32,12.81-17.46,17.05-18.38,10.92-32.31-4.32-31.34-23.01l-2.36-.59c-7.8,12.46-28.87,40.05-45.3,25.63-22.3-19.57,13.25-65.25,20.02-85.99,4.83-14.79-1-16.82-11.62-6.87-18.41,17.24-38.64,57.43-48.81,80.89-2.06,4.75-3.4,16.49-9.15,18.21-5.31,1.59-16.03-1.55-16.69-7.63-.77-7.14,10.72-26.61,11.56-34.95-9.18,11.03-28.27,44.62-44.3,43.75-15.85-.86-18.39-20.77-15.2-33.04l-16.03,21.43c-8.31,8.91-19.77,17.61-31.48,8.84-17.7-13.25,1.46-55.1,9.45-70.72l-27.44,17.17c-6.82,22.74-25.71,53.67-49.59,61.08-21.57,6.7-37.2-13.23-38.99-33.04-7.8,7.7-14.59,16.38-21.97,24.41-3.26,3.55-10.09,8.36-12.23,11.6-8.45,12.79-16.88,49.39-24.13,66.3-9.9,23.07-38.62,82.54-70.78,69.62-23.75-9.54-15.46-37.52-6.16-54.93,6.69-12.51,16.98-22.2,26.38-32.51-32.74,6.06-64.87,14.8-96.85,23.92-24.61,39.84-48.21,81.43-75.92,119.24-29.47,40.22-94.17,120.04-146.18,65.7-31.36-32.76-7.86-78.99,20.89-104.12,43.35-37.9,109.52-60.17,163.25-78.91,60.42-101.17,110.76-207.79,158.85-315.33l.93-4.42c-11.69.59-23.42,1.39-35.05,2.42-97.01,8.62-193.95,20.97-290.45,34.5-5.86.03-15.78-3.26-20.2-7.16S-7.49,31.22,3.96,30.99c7.27,4.69,15.3,3.93,23.81,3.54,55-2.55,112.66-12.44,167.8-17.83,50.68-4.95,101.61-8.46,152.3-13.11,7.98-.73,20.03-4.04,27.39-3.54,7.77.52,18.56,17.53,20.87,24.34,2.31,6.79-1.24,6.87-3.49,12.08-44.67,103.45-95.02,204.44-150.08,302.68,34-6.86,67.06-17.81,101.43-22.91l37.83-29.13,15.42-47.91c-7.21,7.42-11.67,17.25-18.42,25-7.42,8.53-19.35,19.75-30.41,10.15-13.26-11.52-4.33-37.78.4-52.06,6.54-19.75,17.42-38.22,22.95-58.2,5.24-2.31,23.69-1.7,23.19,5.42-7.88,22.71-20.96,43.27-27.77,66.39-2.13,7.23-7.66,21.71-1.48,26.84,8.94.66,40.23-52.62,44.85-62.01,5.09-10.35,8.96-25.39,15.01-34.97,5.23-8.3,24.36-5.67,24.87-.97l-36.52,93.43c1.38,1.32,12.23-10.26,13.7-11.87,15.45-16.9,15.87-22.53,24.16-42.48,7.63-18.33,26.38-41.99,46.57-46.26,1.77-.37,3.68.82,5.15.44,1.9-.49,3.33-3.55,6.45-4.28,7.14-1.68,16.47,2.85,20.58,8.66,1.01,1.43,4.75,9.75,4.75,10.72v27.96ZM784.18,244.95c6.09,1.68,11.04-2.66,15.29-6.32,12.01-10.34,36.14-51.24,40.5-66.59,4.82-16.94-8.02-18.08-19.49-9.97-14.6,10.33-30.24,39.52-34.97,56.65-1.36,4.93-6.06,23.32-1.34,26.23ZM512.83,167.97c-.37.21-3.31,6.42-3.66,7.64-2.5,8.63-1.67,19.06,6.47,24.33,1.98-.44,4.34-17.81,4.23-20.75-.12-3.07-2.44-13.85-7.04-11.21ZM512.65,211.9c-17.27-3.73-23.03-23.18-16.63-38.14-15.99,13.91-27.19,40.61-29.41,61.61-.76,7.14-1.11,25.69,8.58,26.55,18.27,1.61,34.34-35.24,37.46-50.02ZM375.83,302.28c-22.71,18.32-64.95,48.22-68.91,79.23-2.79,21.9,12.61,25.42,26.04,10.57,20.97-23.19,33.43-60.44,42.86-89.8ZM191.39,362.97c-41.37,13.72-84.66,31.54-121.27,55.43-30.01,19.58-60.44,48.55-55.9,87.83,2.02,17.47,13.65,29.78,32.06,26.36,42.64-7.9,106.91-105.44,129.43-141.88l15.68-27.74Z"/>
      <path class="cls-3" d="M1050.39,305.38c-52.56-14.63-135.48-19.65-220.93-20.01-1.65,4.18-3.31,8.38-4.98,12.6,20.8.04,41.6.31,62.39.88,39.02,1.06,172.13,8.48,193.65,30.48,2.79,2.85,1.59,6.46,5.89,8.64,27.71-11.67-19.81-28.07-36.01-32.58Z"/>
      <path class="cls-2" d="M560.31,294.22c-37.16,2.57-114.14,6.57-146.54,14.15-7.93,1.86-11.52,5.02-10.47,10.82,122.27-10.36,245.76-20.16,369.39-21.17l5.3-12.65c-81.37.51-162.47,5.04-217.68,8.85Z"/>
    </g>
  </g>
</svg>