<?xml version="1.0" encoding="UTF-8"?>
<svg id="_레이어_2" data-name="레이어 2" xmlns="http://www.w3.org/2000/svg" viewBox="0 0 383.27 319.25">
  <g id="_레이어_1-2" data-name="레이어 1">
    <path d="M0,77.19v-5.24c1.83-4.67,4.86-7.17,9.53-8.8C66.06,44.88,121.23,21.94,177.76,3.82c5.09-1.63,10.37-4.21,15.77-3.77l185.17,65.59c6.08,4.46,6.08,13.4,0,17.87-57.12,20.39-114.13,42.62-171.73,61.82-3.85,1.28-11.35,4.45-14.98,4.54-3.7.09-9.73-2.55-13.49-3.79-56.73-18.64-112.23-41.4-168.98-60.07-4.68-1.63-7.7-4.14-9.53-8.8Z"/>
    <path d="M304.65,134.83v49.03c0,19.76-36.53,30.62-51.78,34.3-38.39,9.26-84.1,9.28-122.49,0-15.24-3.68-51.79-14.57-51.79-34.3v-49.03l2.45.17c31.42,10.53,62.22,23.29,93.73,33.53,10.86,3.53,15.31,5.2,26.97,2.24,28.9-7.33,61.61-22.48,90.55-32.21,4.06-1.36,8.14-2.98,12.36-3.73Z"/>
    <path d="M356.3,116.11v97.68c14.81,9.04,15.11,30.45-.01,39.08l.02,55.99c-1.47,13.74-21.17,14.19-22.49-.72-1.52-17.16,1.21-36.5.01-53.91-.45-2.41-3.87-3.71-5.61-5.62-7.27-7.97-7.55-20.92-.74-29.22,1.48-1.81,6.11-4.95,6.38-6.35l-.05-89,22.5-7.94Z"/>
  </g>
</svg>