<?xml version="1.0" encoding="UTF-8"?>
<svg id="_레이어_2" data-name="레이어 2" xmlns="http://www.w3.org/2000/svg" viewBox="0 0 202 206.13">
  <g id="_레이어_1-2" data-name="레이어 1">
    <path d="M188.14,206.07c-1.41-.13-3.07.18-4.43,0-3.23-.43-6.85-2.49-9.26-4.62l-57.17-56.76c-1.25-.57-4.51,1.94-5.88,2.57C56.9,172.6-3.17,132.01.13,72.24,2.05,37.45,29.22,7.52,63.26,1.34c64.84-11.77,113.15,56.07,81.87,114.04-.65,1.21-4.23,6.38-4.05,7.09l56.33,56.01c9.09,10.68,4.02,24.42-9.27,27.58ZM127.37,77.61c0-27.58-22.36-49.94-49.95-49.94s-49.95,22.36-49.95,49.94,22.36,49.94,49.95,49.94,49.95-22.36,49.95-49.94Z"/>
  </g>
</svg>