<?xml version="1.0" encoding="UTF-8"?>
<svg id="_레이어_2" data-name="레이어 2" xmlns="http://www.w3.org/2000/svg" viewBox="0 0 512.07 512.07">
  <defs>
    <style>
      .cls-1 {
        fill: #fff;
      }
    </style>
  </defs>
  <g id="_레이어_1-2" data-name="레이어 1">
    <g>
      <path class="cls-1" d="M512.07,256.03c0,141.4-114.63,256.03-256.03,256.03S0,397.44,0,256.03,114.63,0,256.03,0s256.03,114.63,256.03,256.03ZM177.41,113.63c0-11.15-9.04-20.19-20.19-20.19s-20.19,9.04-20.19,20.19,9.04,20.19,20.19,20.19,20.19-9.04,20.19-20.19ZM173.03,158.04h-31v214h31v-214ZM218.03,373.04c51.14-2.75,107.91,10.21,152.32-21.18,70.81-50.06,54.55-163.43-29.55-188.08-38.34-11.24-83.08-3.32-122.76-5.74v215Z"/>
      <path class="cls-1" d="M249.03,345.04v-159c33.67,1.11,68.6-5.18,99.02,12.48,48.71,28.28,45.93,107.44-2.1,134.94-29.04,16.62-64.86,10.33-96.92,11.58Z"/>
    </g>
  </g>
</svg>