<?xml version="1.0" encoding="UTF-8"?>
<svg id="_레이어_2" data-name="레이어 2" xmlns="http://www.w3.org/2000/svg" viewBox="0 0 383.27 383.27">
  <g id="_레이어_1-2" data-name="레이어 1">
    <path d="M383.27,188.63v5.99l-2.65,4.47c-17.95,8.37-38.18,20.4-56.7,27.13-.94.34-1.7.81-2.78.58,3.58-16.54,5.47-32.73,3.64-49.68-.67-6.18-3.35-14.03-3.66-19.56-.1-1.85,1-1.21,2.28-.77,17.85,6.03,37.15,18.92,55.14,25.7l4.72,6.14Z"/>
    <path d="M194.64,0l4.47,2.65c10.5,19.01,19.07,39.47,27.72,59.48-18.6-4.33-35.92-5.48-54.89-2.87-1.43.2-15.49,3.33-15.48,2.49,8.96-19.74,17.17-40.23,27.73-59.1l4.47-2.65h5.99Z"/>
    <circle cx="191.64" cy="191.62" r="111.5"/>
    <path d="M125.77,74.86l-23.59,17.19-14.56,15.39-12.74,18.31-21.54-58.18c-2.11-8.9,4.56-16.13,13.63-14.37l58.8,21.67Z"/>
    <path d="M125.76,307.66l-58.18,22.27c-9.49,1.81-16.3-4.72-14.25-14.25l21.54-58.18,12.74,18.31c10.76,12.66,23.24,24.23,38.15,31.84Z"/>
    <path d="M326.87,55.66c3.19,3.01,3.83,7.76,3.08,11.92l-22.27,58.18c-7.61-14.9-19.19-27.39-31.84-38.15l-18.31-12.74,58.18-21.54c4.07-.54,8.04-.61,11.17,2.33Z"/>
    <path d="M326.87,327.6c-2.82,2.55-7.55,3.02-11.17,2.33l-58.18-21.54,18.31-12.74c12.66-10.76,24.23-23.24,31.84-38.15l22.27,58.18c.77,4.04.08,9.05-3.08,11.92Z"/>
    <path d="M226.82,321.13l-26.6,58.35c-4.41,4.4-11.11,5.21-16.04,1.12-2.01-1.67-4.61-7.9-5.91-10.56-7.83-15.98-14.67-32.62-21.81-48.92,23.47,5.65,46.89,5.65,70.36,0Z"/>
    <path d="M62.14,156.45c-5.68,23.5-5.68,46.86,0,70.36-16.3-7.14-32.94-13.98-48.92-21.81-2.66-1.3-8.89-3.9-10.56-5.91-4.09-4.93-3.28-11.63,1.12-16.04l58.35-26.6Z"/>
  </g>
</svg>