<?xml version="1.0" encoding="UTF-8"?>
<svg id="_레이어_2" data-name="레이어 2" xmlns="http://www.w3.org/2000/svg" viewBox="0 0 383.32 383.41">
  <g id="_레이어_1-2" data-name="레이어 1">
    <path d="M203.67,383.41h-23.2C53.66,373.94-33.25,246.8,12.24,124.98,38.34,55.06,108.45,2.59,183.8.12c6.43-.21,15.35-.86,19.02,5.75,6.88,12.39-10.39,19.29-18.22,25.74-55.97,46.14-65.73,129.91-20.15,187.04,42.93,53.8,119.49,68.22,178.39,31.08,4.26-2.69,13.05-10.62,17.08-11.36,6.3-1.16,13.01,2.46,13.7,9.17.61,5.98-6.3,20.92-9.11,26.85-29.27,61.71-92.41,105.02-160.83,109.02Z"/>
    <path d="M383.32,121.42v5.99c-7.37,18.4-31.6,2.03-19.48-10.87,6.14-6.53,16.56-3.01,19.48,4.88Z"/>
    <path d="M257.36,22.78c5.82-1.2,12.31,2.65,13.52,8.6,2.3,11.37.74,17.26,9.97,26.7,9.15,9.37,15.04,8.06,26.33,10.35s11.57,19.78,0,22.12c-12.18,2.47-18.54,1.08-27.92,11.75-7.8,8.87-6.32,14.39-8.38,24.55-2.33,11.53-19.78,11.57-22.12,0-2.46-12.17-1.05-18.61-11.75-27.92-9.13-7.95-14.11-6.27-24.55-8.38-9.07-1.84-11.91-14.33-4.54-19.93,4.19-3.19,13.47-2.47,19.71-4.99,7.81-3.16,15.56-10.98,18.56-18.87,3.17-8.34.23-21.73,11.19-23.99Z"/>
    <circle cx="349.64" cy="33.84" r="11.24"/>
  </g>
</svg>